<?xml version="1.0" encoding="utf-8"?>
<!-- Generator: Adobe Illustrator 25.2.0, SVG Export Plug-In . SVG Version: 6.00 Build 0)  -->
<svg version="1.1" id="SALUD_copia" xmlns="http://www.w3.org/2000/svg" xmlns:xlink="http://www.w3.org/1999/xlink" x="0px"
	 y="0px" viewBox="0 0 792 612" style="enable-background:new 0 0 792 612;" xml:space="preserve">
<style type="text/css">
	.st0{fill:#F29100;}
</style>
<path class="st0" d="M396,51.4C287.1,51.4,198.4,140,198.4,249c0,37.6,10.3,77.6,30.5,118.7c16,32.6,38.3,66.1,66.3,99.5
	c47.5,56.7,94.2,93.1,96.2,94.6c1.4,1,3,1.6,4.6,1.6c1.6,0,3.2-0.5,4.6-1.6c2-1.5,48.7-37.9,96.2-94.6c28-33.4,50.3-66.9,66.3-99.5
	c20.2-41.1,30.5-81.1,30.5-118.7C593.6,140,504.9,51.4,396,51.4z M396,418.4c-89.3,0-161.8-72.4-161.8-161.8S306.7,94.9,396,94.9
	s161.8,72.4,161.8,161.8S485.3,418.4,396,418.4z"/>
<g>
	<path class="st0" d="M329.9,202.8c3.2,1.5,4.8,3.9,4.5,7.5c-0.1,1.3,0,2.7,0,4c-0.1,3.5-2.7,6.1-6.2,6.2c-7.6,0-15.3,0-22.9,0
		c-4,0-6,1.8-6.5,5.8c-0.3,2.5-0.3,5,0.4,7.4c0.9,2.9,2.4,3.8,5.4,4c6.5,0.4,13,0.2,19.5,0.2c6.5,0.1,11.6,4.9,11.7,11.4
		c0.1,9.8,0.1,19.7,0,29.5c-0.1,6.8-5.1,11.6-11.9,11.7c-13.6,0-27.3,0-40.9,0c-3.6,0-6.2-1.7-6.8-4.7c-0.6-2.8-0.6-5.8,0-8.6
		c0.6-2.9,3.3-4.6,6.5-4.6c7.6,0,15.2,0,22.8,0c1.2,0,2.3,0,3.5-0.2c2.3-0.4,3.5-1.5,3.7-3.7c0.3-3.3,0.4-6.6-0.1-9.9
		c-0.4-2.6-1.7-3.7-4.2-4.2c-1.1-0.2-2.1-0.3-3.2-0.3c-5,0-10,0-14.9,0c-6,0-11.3-3.5-13.7-9.1c-0.7-1.6-1.1-3.2-1.6-4.8
		c0-8.3,0-16.6,0-24.9c0.3-1.3,0.2-2.7,0.7-3.9c1.6-3.6,4.1-6.2,7.7-7.8c1.2-0.5,2.6-0.4,3.8-0.7
		C301.3,202.8,315.6,202.8,329.9,202.8z"/>
	<path class="st0" d="M386.2,310.6c0-3.8-0.3-3.5,3.5-3.5c12.6,0,25.2,0,37.8,0c1.5,0,2.6-0.5,3.6-1.5c3-3,6.1-5.8,9.2-8.7
		c0.8-0.8,1.4-0.6,2.1,0.1c2.9,3,5.9,5.9,8.9,8.9c0.8,0.8,1.7,1.2,2.9,1.2c19.1,0,38.2,0,57.3,0c1.8,0,2-0.2,2-2c0-30.7,0-61.3,0-92
		c0-1.9-0.1-2.1-2.2-2.1c-16.7,0-33.4,0-50,0c-0.5,0-1,0-1.5,0c-1.9,0-2.7-1.3-1.9-3.1c0.2-0.4,0.5-0.6,1-0.6c0.5,0,0.9,0,1.4,0
		c18.2,0,36.3,0,54.5,0c0.4,0,0.8,0,1.2,0c0.8,0,1.2,0.4,1.2,1.2c0,0.6,0,1.2,0,1.7c0,33.4,0,66.9,0,100.3c-22.2,0-44.5,0-66.7,0
		c-1.1-0.3-1.9-1.2-2.7-2c-1.7-1.7-3.4-3.4-5.2-5.2c-1.1-1-1.5-1-2.6,0c-2.3,1.9-4.2,4.1-6.4,6c-0.6,0.5-1.3,0.8-2,1.1
		C416.4,310.6,401.3,310.6,386.2,310.6z"/>
	<path class="st0" d="M377.2,260.7c0.4-0.5,0.2-1,0.2-1.5c0-9.7,0-19.5,0-29.2c0-2.1,0.1-2.2,2.3-2.2c3.5,0,7,0,10.5,0
		c1.8,0,2,0.2,2,1.9c0,20.2,0,40.3,0,60.5c0,1.6-0.2,1.8-1.9,1.9c-3.5,0-7,0-10.5,0c-1.2,0-1.9-0.4-2.5-1.5
		c-6-10.7-12.1-21.4-18.2-32.2c-0.3-0.6-0.7-1.1-1.1-1.8c-0.4,0.6-0.3,1.2-0.3,1.7c0,10.5,0,21,0,31.5c0,2.2-0.1,2.3-2.2,2.3
		c-3.6,0-7.2,0-10.8,0c-1.7,0-1.9-0.2-1.9-1.9c0-20.2,0-40.3,0-60.5c0-1.7,0.2-1.9,1.9-1.9c4,0,8,0,11.9,0c1.2,0,1.9,0.5,2.5,1.5
		c5.8,10.3,11.6,20.5,17.4,30.8C376.7,260.2,376.8,260.6,377.2,260.7z"/>
	<path class="st0" d="M454.6,259.2c0-9.7,0-19.5,0-29.2c0-2.2,0.1-2.3,2.2-2.3c12.1,0,24.2,0,36.3,0c2.1,0,2.2,0.1,2.2,2.3
		c0,2.9,0,5.8,0,8.7c0,2.1-0.1,2.2-2.3,2.2c-7.1,0-14.3,0-21.4,0c-2.1,0-2.2,0.1-2.2,2.2c0,2.3,0,4.6,0,7c0,1.6,0.2,1.8,1.8,1.8
		c6.7,0,13.4,0,20.2,0c2.3,0,2.4,0.1,2.4,2.3c0,2.6,0,5.1,0,7.7c0,1.7-0.2,1.9-1.9,1.9c-6.7,0-13.4,0-20.2,0c-2.3,0-2.4,0.1-2.4,2.4
		c0,2.9,0,5.9,0,8.8c0,2.4,0,2.5,2.5,2.5c7.1,0,14.1,0,21.2,0c2.1,0,2.2,0.1,2.2,2.2c0,3.1,0,6.1,0,9.2c0,1.6-0.2,1.8-1.8,1.8
		c-12.4,0-24.7,0-37.1,0c-1.7,0-1.9-0.2-1.9-2C454.6,278.8,454.6,269,454.6,259.2z"/>
	<path class="st0" d="M423.4,227.7c8.4,0,16.8,0,25.1,0c2,0,2.1,0.1,2.1,2.1c0,3,0,6,0,9c0,2-0.1,2.1-2.2,2.1c-5,0-10,0-14.9,0
		c-2.2,0-2.3,0.1-2.3,2.3c0,14.9,0,29.8,0,44.7c0,0.5,0,1.1,0,1.6c0,0.7-0.4,1.2-1.2,1.2c-4.5,0-9,0-13.6,0c-0.8,0-1.1-0.4-1.2-1.2
		c0-0.5,0-1.1,0-1.6c0-14.8,0-29.7,0-44.5c0-2.4,0-2.4-2.5-2.4c-5,0-10,0-14.9,0c-1.8,0-2-0.2-2-2c0-3.1,0-6.2,0-9.3
		c0-1.7,0.2-1.9,1.9-1.9C406.3,227.7,414.8,227.7,423.4,227.7z"/>
</g>
</svg>
